<?xml version="1.0" encoding="utf-8"?>
<!-- Generator: Adobe Illustrator 16.0.0, SVG Export Plug-In . SVG Version: 6.00 Build 0)  -->
<!DOCTYPE svg PUBLIC "-//W3C//DTD SVG 1.0//EN" "http://www.w3.org/TR/2001/REC-SVG-20010904/DTD/svg10.dtd">
<svg version="1.0" id="Livello_1" xmlns="http://www.w3.org/2000/svg" xmlns:xlink="http://www.w3.org/1999/xlink" x="0px" y="0px"
	 width="283.464px" height="89.312px" viewBox="0 0 283.464 89.312" enable-background="new 0 0 283.464 89.312"
	 xml:space="preserve">
<g>
	<g>
		<path fill="#706F6F" d="M97.806,51.952l5.104-0.445c0.24,2.045,0.804,3.723,1.687,5.033s2.255,2.371,4.113,3.18
			c1.86,0.809,3.952,1.213,6.276,1.213c2.063,0,3.886-0.307,5.467-0.92c1.58-0.613,2.757-1.453,3.528-2.523s1.156-2.236,1.156-3.5
			c0-1.283-0.372-2.404-1.115-3.361c-0.744-0.957-1.971-1.762-3.681-2.412c-1.099-0.428-3.524-1.094-7.28-1.994
			c-3.756-0.902-6.387-1.754-7.893-2.553c-1.952-1.021-3.407-2.291-4.365-3.807s-1.436-3.211-1.436-5.09
			c0-2.064,0.585-3.994,1.757-5.787s2.882-3.156,5.132-4.086c2.249-0.93,4.751-1.395,7.502-1.395c3.031,0,5.704,0.488,8.019,1.465
			c2.315,0.975,4.096,2.412,5.341,4.309c1.246,1.896,1.915,4.043,2.008,6.443l-5.188,0.391c-0.278-2.586-1.223-4.537-2.831-5.857
			c-1.607-1.32-3.983-1.98-7.126-1.98c-3.271,0-5.656,0.6-7.152,1.799c-1.498,1.199-2.246,2.645-2.246,4.336
			c0,1.471,0.53,2.678,1.59,3.627c1.041,0.947,3.761,1.92,8.158,2.914s7.414,1.863,9.05,2.607c2.379,1.098,4.138,2.486,5.271,4.17
			s1.7,3.621,1.7,5.814c0,2.176-0.622,4.225-1.868,6.15c-1.245,1.924-3.035,3.42-5.368,4.49c-2.334,1.068-4.96,1.604-7.879,1.604
			c-3.7,0-6.801-0.539-9.301-1.617c-2.502-1.078-4.463-2.701-5.886-4.867C98.629,57.136,97.88,54.687,97.806,51.952z"/>
		<path fill="#706F6F" d="M135.234,50.278c0-5.484,1.524-9.547,4.574-12.188c2.549-2.193,5.652-3.291,9.316-3.291
			c4.071,0,7.398,1.334,9.985,4.004c2.584,2.666,3.874,6.354,3.874,11.057c0,3.813-0.571,6.811-1.713,8.994
			c-1.145,2.186-2.81,3.883-4.992,5.092c-2.186,1.207-4.57,1.813-7.154,1.813c-4.147,0-7.498-1.33-10.055-3.99
			C136.513,59.11,135.234,55.28,135.234,50.278z M140.394,50.278c0,3.793,0.827,6.635,2.482,8.521
			c1.654,1.887,3.736,2.83,6.248,2.83c2.491,0,4.565-0.947,6.22-2.844c1.654-1.898,2.48-4.789,2.48-8.674
			c0-3.662-0.832-6.438-2.494-8.326c-1.665-1.887-3.733-2.83-6.206-2.83c-2.512,0-4.594,0.938-6.248,2.816
			C141.221,43.651,140.394,46.487,140.394,50.278z"/>
		<path fill="#706F6F" d="M188.198,54.239l4.938,0.641c-0.539,3.404-1.92,6.068-4.143,7.992s-4.95,2.887-8.185,2.887
			c-4.056,0-7.313-1.326-9.775-3.975c-2.464-2.65-3.696-6.447-3.696-11.395c0-3.197,0.531-5.996,1.591-8.393
			c1.06-2.4,2.671-4.199,4.838-5.398c2.165-1.199,4.522-1.799,7.069-1.799c3.216,0,5.848,0.814,7.893,2.439
			c2.047,1.629,3.356,3.939,3.933,6.932l-4.881,0.754c-0.465-1.99-1.288-3.486-2.467-4.492c-1.182-1.004-2.608-1.506-4.281-1.506
			c-2.53,0-4.583,0.908-6.163,2.721c-1.583,1.813-2.371,4.682-2.371,8.604c0,3.979,0.762,6.871,2.286,8.674s3.513,2.705,5.97,2.705
			c1.97,0,3.614-0.604,4.937-1.813C187.008,58.608,187.845,56.749,188.198,54.239z"/>
		<path fill="#706F6F" d="M197.458,29.976v-5.773h5.019v5.773H197.458z M197.458,65.089V35.47h5.019v29.619H197.458z"/>
		<path fill="#706F6F" d="M230.395,55.55l5.186,0.641c-0.817,3.031-2.331,5.383-4.543,7.059c-2.215,1.672-5.04,2.51-8.479,2.51
			c-4.334,0-7.768-1.336-10.306-4.002c-2.539-2.668-3.809-6.412-3.809-11.227c0-4.982,1.285-8.85,3.851-11.604
			c2.565-2.75,5.893-4.127,9.985-4.127c3.959,0,7.193,1.35,9.705,4.045c2.51,2.695,3.764,6.488,3.764,11.379
			c0,0.297-0.008,0.744-0.027,1.34h-22.088c0.186,3.252,1.104,5.744,2.762,7.473c1.654,1.729,3.718,2.594,6.189,2.594
			c1.841,0,3.413-0.482,4.714-1.449S229.632,57.671,230.395,55.55z M213.912,47.435h16.539c-0.224-2.492-0.855-4.359-1.896-5.605
			c-1.599-1.936-3.673-2.902-6.219-2.902c-2.308,0-4.244,0.771-5.816,2.316C214.948,42.786,214.079,44.851,213.912,47.435z"/>
		<path fill="#706F6F" d="M252.847,60.599l0.725,4.434c-1.415,0.299-2.679,0.447-3.794,0.447c-1.822,0-3.235-0.289-4.238-0.865
			c-1.004-0.576-1.711-1.334-2.119-2.273c-0.409-0.938-0.614-2.914-0.614-5.926V39.374h-3.683V35.47h3.683v-7.336l4.993-3.012V35.47
			h5.048v3.904h-5.048v17.318c0,1.434,0.087,2.354,0.263,2.762c0.178,0.41,0.465,0.734,0.865,0.977
			c0.398,0.242,0.973,0.363,1.716,0.363C251.201,60.794,251.934,60.728,252.847,60.599z"/>
		<path fill="#706F6F" d="M257.532,76.495l-0.558-4.713c1.097,0.297,2.055,0.445,2.873,0.445c1.115,0,2.008-0.186,2.677-0.557
			c0.669-0.373,1.219-0.893,1.646-1.563c0.316-0.502,0.826-1.748,1.532-3.736c0.093-0.279,0.241-0.689,0.446-1.229L254.911,35.47
			h5.409l6.163,17.152c0.8,2.176,1.517,4.463,2.148,6.861c0.576-2.305,1.265-4.557,2.063-6.75l6.331-17.264h5.021L270.78,65.591
			c-1.208,3.252-2.148,5.494-2.817,6.721c-0.893,1.656-1.915,2.867-3.067,3.639s-2.53,1.158-4.129,1.158
			C259.799,77.108,258.721,76.905,257.532,76.495z"/>
	</g>
	<g>
		<path fill="#006187" d="M41.653,65.091V22.888h8.521v18.74l17.215-18.74h11.457L62.956,39.325l16.754,25.766H68.684L57.083,45.284
			l-6.909,7.053v12.754H41.653z"/>
	</g>
	<g>
		<path fill="#006187" d="M19.297,28.009v1.451c0,0.859-0.249,1.682-0.745,2.469c-0.497,0.787-1.207,1.182-2.131,1.182
			c-0.533,0-0.983-0.119-1.352-0.354c-0.367-0.232-0.716-0.666-1.044-1.295c-0.329-0.629-0.493-1.297-0.493-2.002v-1.451
			c0-0.855,0.247-1.678,0.741-2.467s1.204-1.184,2.128-1.184c0.528,0,0.978,0.117,1.345,0.35s0.717,0.662,1.051,1.291
			C19.13,26.63,19.297,27.3,19.297,28.009z M17.968,28.009c0-0.717-0.199-1.346-0.6-1.883c-0.228-0.297-0.548-0.445-0.96-0.445
			c-0.4,0-0.728,0.164-0.98,0.49c-0.383,0.494-0.574,1.107-0.574,1.838v1.451c0,0.723,0.202,1.35,0.606,1.883
			c0.224,0.295,0.544,0.443,0.961,0.443c0.396,0,0.72-0.162,0.974-0.488c0.382-0.494,0.573-1.107,0.573-1.838V28.009z"/>
		<path fill="#006187" d="M25.01,24.358v7.234h1.334c0.318,0,0.546,0.063,0.681,0.186c0.136,0.121,0.203,0.281,0.203,0.48
			c0,0.191-0.067,0.35-0.203,0.473c-0.135,0.123-0.362,0.184-0.681,0.184h-3.991c-0.317,0-0.545-0.061-0.68-0.184
			c-0.136-0.123-0.203-0.281-0.203-0.48c0-0.193,0.067-0.352,0.203-0.473c0.135-0.123,0.362-0.186,0.68-0.186h1.335v-5.512
			l-1.18,0.309c-0.189,0.051-0.331,0.078-0.426,0.078c-0.168,0-0.313-0.068-0.436-0.201c-0.122-0.133-0.184-0.295-0.184-0.488
			c0-0.178,0.045-0.316,0.135-0.416c0.091-0.102,0.28-0.191,0.568-0.27L25.01,24.358z"/>
		<path fill="#006187" d="M35.146,28.009v1.451c0,0.859-0.248,1.682-0.744,2.469c-0.497,0.787-1.207,1.182-2.131,1.182
			c-0.533,0-0.983-0.119-1.352-0.354c-0.367-0.232-0.716-0.666-1.044-1.295c-0.329-0.629-0.493-1.297-0.493-2.002v-1.451
			c0-0.855,0.247-1.678,0.741-2.467s1.204-1.184,2.128-1.184c0.528,0,0.977,0.117,1.344,0.35c0.368,0.232,0.718,0.662,1.052,1.291
			C34.98,26.63,35.146,27.3,35.146,28.009z M33.818,28.009c0-0.717-0.199-1.346-0.6-1.883c-0.228-0.297-0.548-0.445-0.96-0.445
			c-0.4,0-0.728,0.164-0.98,0.49c-0.383,0.494-0.574,1.107-0.574,1.838v1.451c0,0.723,0.202,1.35,0.606,1.883
			c0.224,0.295,0.544,0.443,0.961,0.443c0.396,0,0.72-0.162,0.974-0.488c0.382-0.494,0.573-1.107,0.573-1.838V28.009z"/>
		<path fill="#006187" d="M19.297,43.854v1.451c0,0.861-0.249,1.684-0.745,2.471c-0.497,0.785-1.207,1.18-2.131,1.18
			c-0.533,0-0.983-0.117-1.352-0.352c-0.367-0.234-0.716-0.666-1.044-1.297c-0.329-0.629-0.493-1.297-0.493-2.002v-1.451
			c0-0.855,0.247-1.676,0.741-2.465s1.204-1.186,2.128-1.186c0.528,0,0.978,0.117,1.345,0.35s0.717,0.662,1.051,1.293
			C19.13,42.478,19.297,43.146,19.297,43.854z M17.968,43.854c0-0.717-0.199-1.344-0.6-1.883c-0.228-0.295-0.548-0.443-0.96-0.443
			c-0.4,0-0.728,0.162-0.98,0.488c-0.383,0.494-0.574,1.107-0.574,1.838v1.451c0,0.723,0.202,1.352,0.606,1.883
			c0.224,0.297,0.544,0.445,0.961,0.445c0.396,0,0.72-0.164,0.974-0.49c0.382-0.494,0.573-1.107,0.573-1.838V43.854z"/>
		<path fill="#006187" d="M25.01,40.204v7.236h1.334c0.318,0,0.546,0.063,0.681,0.184c0.136,0.123,0.203,0.283,0.203,0.48
			c0,0.193-0.067,0.352-0.203,0.475c-0.135,0.123-0.362,0.184-0.681,0.184h-3.991c-0.317,0-0.545-0.061-0.68-0.184
			c-0.136-0.123-0.203-0.283-0.203-0.48c0-0.193,0.067-0.352,0.203-0.475c0.135-0.121,0.362-0.184,0.68-0.184h1.335v-5.514
			l-1.18,0.311c-0.189,0.051-0.331,0.078-0.426,0.078c-0.168,0-0.313-0.068-0.436-0.201c-0.122-0.133-0.184-0.297-0.184-0.49
			c0-0.176,0.045-0.314,0.135-0.416c0.091-0.1,0.28-0.189,0.568-0.268L25.01,40.204z"/>
		<path fill="#006187" d="M35.146,43.854v1.451c0,0.861-0.248,1.684-0.744,2.471c-0.497,0.785-1.207,1.18-2.131,1.18
			c-0.533,0-0.983-0.117-1.352-0.352c-0.367-0.234-0.716-0.666-1.044-1.297c-0.329-0.629-0.493-1.297-0.493-2.002v-1.451
			c0-0.855,0.247-1.676,0.741-2.465s1.204-1.186,2.128-1.186c0.528,0,0.977,0.117,1.344,0.35c0.368,0.232,0.718,0.662,1.052,1.293
			C34.98,42.478,35.146,43.146,35.146,43.854z M33.818,43.854c0-0.717-0.199-1.344-0.6-1.883c-0.228-0.295-0.548-0.443-0.96-0.443
			c-0.4,0-0.728,0.162-0.98,0.488c-0.383,0.494-0.574,1.107-0.574,1.838v1.451c0,0.723,0.202,1.352,0.606,1.883
			c0.224,0.297,0.544,0.445,0.961,0.445c0.396,0,0.72-0.164,0.974-0.49c0.382-0.494,0.573-1.107,0.573-1.838V43.854z"/>
		<path fill="#006187" d="M25.011,56.052v7.234h1.334c0.318,0,0.545,0.063,0.681,0.186c0.136,0.121,0.203,0.283,0.203,0.48
			c0,0.193-0.067,0.35-0.203,0.475c-0.136,0.121-0.362,0.182-0.681,0.182h-3.991c-0.318,0-0.545-0.061-0.681-0.182
			c-0.135-0.125-0.203-0.283-0.203-0.48c0-0.195,0.068-0.354,0.203-0.475c0.136-0.123,0.362-0.186,0.681-0.186h1.335v-5.512
			l-1.18,0.309c-0.189,0.053-0.332,0.078-0.426,0.078c-0.168,0-0.313-0.066-0.436-0.199c-0.122-0.133-0.185-0.297-0.185-0.49
			c0-0.178,0.046-0.314,0.136-0.416c0.091-0.102,0.279-0.191,0.567-0.268L25.011,56.052z"/>
		<path fill="#006187" d="M32.936,56.052v7.234h1.334c0.318,0,0.545,0.063,0.681,0.186c0.136,0.121,0.203,0.283,0.203,0.48
			c0,0.193-0.067,0.35-0.203,0.475c-0.136,0.121-0.362,0.182-0.681,0.182h-3.991c-0.318,0-0.545-0.061-0.681-0.182
			c-0.135-0.125-0.203-0.283-0.203-0.48c0-0.195,0.068-0.354,0.203-0.475c0.136-0.123,0.362-0.186,0.681-0.186h1.335v-5.512
			l-1.181,0.309c-0.188,0.053-0.331,0.078-0.425,0.078c-0.168,0-0.313-0.066-0.436-0.199c-0.122-0.133-0.185-0.297-0.185-0.49
			c0-0.178,0.046-0.314,0.136-0.416c0.091-0.102,0.279-0.191,0.567-0.268L32.936,56.052z"/>
	</g>
	<g>
		<path fill="#006187" d="M85.343,50.243c-2.729,19.658-19.64,34.848-40.039,34.848c-22.295,0-40.434-18.139-40.434-40.434
			c0-22.297,18.139-40.436,40.434-40.436c20.398,0,37.308,15.188,40.039,34.848h3.48C86.068,17.501,67.61,0.769,45.304,0.769
			c-24.199,0-43.887,19.689-43.887,43.889s19.688,43.885,43.887,43.885c22.306,0,40.766-16.73,43.52-38.299H85.343z"/>
	</g>
	<rect x="80.558" y="41.657" fill="#006187" width="13.382" height="5.996"/>
</g>
</svg>
